<svg xmlns="http://www.w3.org/2000/svg" xmlns:xlink="http://www.w3.org/1999/xlink" viewBox="0 0 86.406 33.406" fill="#fff" fill-rule="evenodd" stroke="#000" stroke-linecap="round" stroke-linejoin="round"><use xlink:href="#A" x=".203" y=".203"/><symbol id="A" overflow="visible"><path d="M14.043 24.505c-.024.097-.12.145-.29.145h-3.222c-.194 0-.365-.084-.507-.254l-5.32-6.768-1.484 1.41v5.25c0 .242-.12.362-.362.362H.362C.12 24.65 0 24.53 0 24.29V.365C0 .125.12 0 .362 0H2.86c.24 0 .362.12.362.365v14.73l6.37-6.442c.17-.168.338-.253.507-.253h3.33c.145 0 .24.06.29.18.05.145.04.253-.04.326L6.95 15.42l7.02 8.723c.096.097.12.217.073.362m13.048.145h-2.497c-.266 0-.398-.12-.398-.365v-.507c-1.062.796-2.425 1.194-4.1 1.194-1.52 0-2.835-.47-3.946-1.41-1.086-.965-1.63-2.192-1.63-3.692 0-2.365 1.47-3.97 4.415-4.814 1.158-.338 2.907-.627 5.248-.87.073-.892-.162-1.652-.706-2.28s-1.333-.94-2.37-.94c-1.352 0-2.727.487-4.126 1.448-.217.12-.374.097-.47-.072l-1.3-1.846c-.12-.145-.084-.313.108-.507C17.2 8.7 19.12 8.07 21.124 8.07c1.544 0 2.86.362 3.946 1.086 1.592 1.062 2.39 2.763 2.39 5.103v10.025a.32.32 0 0 1-.365.365m-2.896-7.56c-2.365.242-3.98.555-4.85.94-1.182.507-1.714 1.23-1.593 2.172.072.53.338.96.796 1.285a3.12 3.12 0 0 0 1.592.561c1.69.12 3.045-.326 4.054-1.34zm18.05 13.84c-1.315 1.363-3.18 2.045-5.592 2.045-1.4 0-2.727-.35-3.98-1.05a13.62 13.62 0 0 1-.941-.67l-1.266-1.03c-.17-.145-.18-.326-.04-.543l1.705-1.705c.072-.073.17-.11.29-.11.096 0 .18.04.253.11 1.35 1.35 2.666 2.027 3.945 2.027 2.923 0 4.38-1.52 4.38-4.56V23.56c-1.134.94-2.642 1.41-4.524 1.41-2.34 0-4.175-.88-5.5-2.642-1.158-1.544-1.737-3.49-1.737-5.827 0-2.22.555-4.102 1.665-5.642 1.3-1.858 3.15-2.787 5.538-2.787 1.8 0 3.33.47 4.56 1.412v-.724c0-.24.12-.362.362-.362h2.498c.24 0 .365.12.365.362V24.94c0 2.63-.658 4.626-1.973 5.99M41 13.54c-.603-1.544-2.003-2.316-4.198-2.316-2.823 0-4.234 1.762-4.234 5.284 0 1.954.47 3.38 1.41 4.27.7.7 1.604 1.05 2.714 1.05 2.268 0 3.703-.772 4.303-2.316zm18.27 17.394c-1.315 1.363-3.18 2.045-5.592 2.045-1.4 0-2.727-.35-3.98-1.05-.266-.17-.58-.393-.94-.67l-1.266-1.03c-.17-.145-.18-.326-.04-.543l1.705-1.705c.072-.073.17-.11.29-.11.096 0 .18.04.253.11 1.35 1.35 2.666 2.027 3.945 2.027 2.923 0 4.384-1.52 4.384-4.56v-1.882c-1.135.94-2.64 1.41-4.524 1.41-2.34 0-4.175-.88-5.5-2.642-1.16-1.544-1.737-3.49-1.737-5.827 0-2.22.555-4.102 1.664-5.642 1.3-1.858 3.15-2.787 5.538-2.787 1.8 0 3.33.47 4.56 1.412v-.724c0-.24.12-.362.362-.362h2.497c.24 0 .365.12.365.362v16.178c0 2.63-.658 4.626-1.972 5.99m-1.25-17.4c-.604-1.544-2.003-2.316-4.2-2.316-2.823 0-4.235 1.762-4.235 5.284 0 1.954.47 3.38 1.41 4.27.7.7 1.605 1.05 2.714 1.05 2.268 0 3.704-.772 4.303-2.316v-5.967zm8.758 11.106h-2.498c-.24 0-.365-.12-.365-.365V.365A.32.32 0 0 1 64.288 0h2.498a.32.32 0 0 1 .365.365V24.29a.32.32 0 0 1-.365.365m18.203-7.347c0 .242-.122.362-.362.362H72.864c.145 1.183.652 2.172 1.52 2.963.99.845 2.232 1.266 3.728 1.266 1.327 0 2.517-.373 3.583-1.122.218-.145.398-.145.543 0l1.705 1.737c.193.194.193.365 0 .507-1.737 1.3-3.752 1.954-6.048 1.954-2.46 0-4.512-.82-6.153-2.46-1.592-1.616-2.39-3.68-2.39-6.19 0-2.365.783-4.367 2.352-6.008 1.448-1.496 3.33-2.244 5.642-2.244 2.195 0 4.04.784 5.538 2.352 1.544 1.617 2.256 3.644 2.135 6.08zm-4.74-5.32c-.82-.748-1.8-1.122-2.963-1.122-1.086 0-2.04.362-2.86 1.085s-1.34 1.665-1.556 2.823h8.722c-.024-1.11-.47-2.04-1.34-2.787" stroke="none" fill="#20beff" fill-rule="nonzero"/></symbol></svg>